<?xml version="1.0" standalone="no"?>
<!DOCTYPE svg PUBLIC "-//W3C//DTD SVG 20010904//EN"
 "http://www.w3.org/TR/2001/REC-SVG-20010904/DTD/svg10.dtd">
<svg version="1.0" xmlns="http://www.w3.org/2000/svg"
 width="240.000000pt" height="240.000000pt" viewBox="0 0 240.000000 240.000000"
 preserveAspectRatio="xMidYMid meet">
<metadata>
Created by potrace 1.14, written by Peter Selinger 2001-2017
</metadata>
<g transform="translate(0.000000,240.000000) scale(0.100000,-0.100000)"
fill="#000000" stroke="none">
<path d="M190 2367 c-47 -23 -77 -48 -111 -90 -84 -104 -79 -40 -79 -1078 0
-906 0 -919 21 -974 38 -102 106 -170 209 -208 42 -15 130 -17 970 -17 l925 0
66 26 c96 36 151 95 192 204 16 42 17 127 17 982 0 562 -4 939 -9 943 -5 3
-13 20 -16 38 -10 43 -65 118 -112 150 -86 59 -40 57 -1067 57 l-941 0 -65
-33z m1775 -477 c35 -33 49 -82 36 -123 -8 -22 -174 -195 -554 -575 l-542
-542 -50 0 -49 0 -208 208 c-203 202 -208 209 -208 248 0 84 76 145 152 124
22 -7 77 -54 170 -147 l138 -138 368 365 c202 201 424 421 494 489 l127 124
51 -5 c34 -4 59 -13 75 -28z"/>
</g>
</svg>
